<svg width="41" height="39" viewBox="0 0 41 39" fill="none" xmlns="http://www.w3.org/2000/svg">
<path d="M1.7035 38.61C1.21417 38.61 0.808 38.4483 0.485 38.125C0.161667 37.802 0 37.3958 0 36.9065C0 36.4175 0.161667 36.0113 0.485 35.688C0.808 35.365 1.21417 35.2035 1.7035 35.2035H18.5955V11.159C17.7448 10.851 16.9878 10.3633 16.3245 9.696C15.6612 9.02833 15.1755 8.26917 14.8675 7.4185H7.264L13.009 21.31C13.158 21.6163 13.2428 21.9395 13.2635 22.2795C13.2842 22.6195 13.2612 22.9553 13.1945 23.287C12.8865 24.819 12.092 25.974 10.811 26.752C9.52967 27.5297 8.1605 27.9185 6.7035 27.9185C5.24617 27.9185 3.875 27.5277 2.59 26.746C1.30467 25.964 0.512 24.811 0.212 23.287C0.145334 22.9553 0.120334 22.6195 0.137 22.2795C0.153667 21.9395 0.236667 21.6163 0.386 21.31L6.1425 7.4185H3.7035C3.21417 7.4185 2.808 7.257 2.485 6.934C2.16167 6.61067 2 6.2045 2 5.7155C2 5.22617 2.16167 4.818 2.485 4.491C2.808 4.16366 3.21417 4 3.7035 4H14.8675C15.2995 2.82533 16.0067 1.865 16.989 1.119C17.9717 0.372997 19.075 0 20.299 0C21.523 0 22.6263 0.372997 23.609 1.119C24.5913 1.865 25.2985 2.82533 25.7305 4H36.8945C37.3838 4 37.792 4.16366 38.119 4.491C38.4463 4.818 38.61 5.22617 38.61 5.7155C38.61 6.2045 38.4463 6.61067 38.119 6.934C37.792 7.257 37.3838 7.4185 36.8945 7.4185H34.4555L40.212 21.31C40.3613 21.6163 40.4443 21.9395 40.461 22.2795C40.4777 22.6195 40.4527 22.9553 40.386 23.287C40.086 24.819 39.2933 25.974 38.008 26.752C36.723 27.5297 35.3518 27.9185 33.8945 27.9185C32.4452 27.9185 31.078 27.5277 29.793 26.746C28.508 25.964 27.7155 24.811 27.4155 23.287C27.3408 22.9553 27.3138 22.6195 27.3345 22.2795C27.3552 21.9395 27.44 21.6163 27.589 21.31L33.334 7.4185H25.7305C25.4225 8.26917 24.9368 9.02833 24.2735 9.696C23.6102 10.3633 22.8532 10.851 22.0025 11.159V35.2035H38.8945C39.3838 35.2035 39.792 35.365 40.119 35.688C40.4463 36.0113 40.61 36.4175 40.61 36.9065C40.61 37.3958 40.4463 37.802 40.119 38.125C39.792 38.4483 39.3838 38.61 38.8945 38.61H1.7035ZM30.288 22.072H37.513L33.8945 13.1945L30.288 22.072ZM3.097 22.072H10.322L6.7035 13.1945L3.097 22.072ZM20.299 8.1435C20.983 8.1435 21.5587 7.8995 22.026 7.4115C22.4937 6.9235 22.7275 6.35817 22.7275 5.7155C22.7275 5.0315 22.4937 4.45566 22.026 3.988C21.5587 3.52066 20.983 3.287 20.299 3.287C19.6483 3.287 19.081 3.52066 18.597 3.988C18.1127 4.45566 17.8705 5.0315 17.8705 5.7155C17.8705 6.35817 18.1127 6.9235 18.597 7.4115C19.081 7.8995 19.6483 8.1435 20.299 8.1435Z" fill="black"/>
</svg>
